<svg width="41" height="41" viewBox="0 0 41 41" fill="none" xmlns="http://www.w3.org/2000/svg">
<path d="M29.3553 23.9785C26.944 23.9785 24.9823 25.9402 24.9823 28.3515C24.9823 30.7628 26.944 32.7245 29.3553 32.7245C31.767 32.7245 33.7283 30.7628 33.7283 28.3515C33.7283 25.9402 31.7666 23.9785 29.3553 23.9785ZM29.3553 30.538C28.1495 30.538 27.1688 29.5573 27.1688 28.3515C27.1688 27.1456 28.1495 26.165 29.3553 26.165C30.5611 26.165 31.5418 27.1456 31.5418 28.3515C31.5418 29.5574 30.5611 30.538 29.3553 30.538Z" fill="white"/>
<path d="M14.4143 23.9785C12.003 23.9785 10.0413 25.9402 10.0413 28.3515C10.0413 30.7628 12.003 32.7245 14.4143 32.7245C16.8256 32.7245 18.7873 30.7628 18.7873 28.3515C18.7873 25.9402 16.8256 23.9785 14.4143 23.9785ZM14.4143 30.538C13.2085 30.538 12.2278 29.5573 12.2278 28.3515C12.2278 27.1456 13.2085 26.165 14.4143 26.165C15.6198 26.165 16.6008 27.1456 16.6008 28.3515C16.6008 29.5574 15.6201 30.538 14.4143 30.538Z" fill="white"/>
<path d="M32.3001 11.4616C32.1143 11.0924 31.7364 10.8596 31.3231 10.8596H25.5654V13.0461H30.6489L33.6258 18.9671L35.5798 17.9846L32.3001 11.4616Z" fill="white"/>
<path d="M26.0756 27.2947H17.8034V29.4812H26.0756V27.2947Z" fill="white"/>
<path d="M11.1345 27.2947H7.34464C6.74078 27.2947 6.25143 27.7841 6.25143 28.3879C6.25143 28.9918 6.74084 29.4811 7.34464 29.4811H11.1346C11.7384 29.4811 12.2278 28.9917 12.2278 28.3879C12.2278 27.7841 11.7384 27.2947 11.1345 27.2947Z" fill="white"/>
<path d="M37.6166 20.6113L35.4662 17.8417C35.2596 17.575 34.9407 17.419 34.6029 17.419H26.6586V9.76628C26.6586 9.16242 26.1692 8.67307 25.5654 8.67307H7.34464C6.74078 8.67307 6.25143 9.16248 6.25143 9.76628C6.25143 10.3701 6.74084 10.8595 7.34464 10.8595H24.4721V18.5122C24.4721 19.1161 24.9616 19.6054 25.5654 19.6054H34.0675L35.6597 21.6563V27.2946H32.635C32.0311 27.2946 31.5418 27.784 31.5418 28.3878C31.5418 28.9917 32.0312 29.481 32.635 29.481H36.7529C37.3567 29.481 37.8461 28.9916 37.8462 28.3878V21.2818C37.8462 21.0391 37.7653 20.803 37.6166 20.6113Z" fill="white"/>
<path d="M11.0617 21.7556H6.0327C5.42884 21.7556 4.93949 22.245 4.93949 22.8488C4.93949 23.4527 5.42891 23.942 6.0327 23.942H11.0616C11.6655 23.942 12.1548 23.4526 12.1548 22.8488C12.1549 22.245 11.6655 21.7556 11.0617 21.7556Z" fill="white"/>
<path d="M13.5761 17.4554H4.24706C3.64327 17.4554 3.15385 17.9449 3.15385 18.5487C3.15385 19.1526 3.64327 19.6419 4.24706 19.6419H13.5761C14.18 19.6419 14.6693 19.1525 14.6693 18.5487C14.6693 17.9449 14.18 17.4554 13.5761 17.4554Z" fill="white"/>
<path d="M15.3617 13.1554H6.0327C5.42884 13.1554 4.93949 13.6448 4.93949 14.2486C4.93949 14.8524 5.42891 15.3418 6.0327 15.3418H15.3617C15.9656 15.3418 16.455 14.8524 16.455 14.2486C16.455 13.6448 15.9656 13.1554 15.3617 13.1554Z" fill="white"/>
</svg>
