<svg width="32" height="32" viewBox="0 0 32 32" fill="none" xmlns="http://www.w3.org/2000/svg">
<path d="M24 26H23V22.727C23 21.099 22.307 19.541 21.097 18.453L19.404 16.93C19.137 16.689 18.99 16.359 18.99 16C18.99 15.641 19.137 15.311 19.404 15.071L21.097 13.548C22.307 12.458 23 10.901 23 9.273V6H24C24.553 6 25 5.552 25 5C25 4.448 24.553 4 24 4H8C7.447 4 7 4.448 7 5C7 5.552 7.447 6 8 6H9V9.273C9 10.901 9.693 12.459 10.903 13.547L12.596 15.07C12.863 15.311 13.01 15.641 13.01 16C13.01 16.359 12.863 16.689 12.596 16.929L10.903 18.452C9.693 19.542 9 21.099 9 22.727V26H8C7.447 26 7 26.448 7 27C7 27.552 7.447 28 8 28H24C24.553 28 25 27.552 25 27C25 26.448 24.553 26 24 26ZM12 22.829C12 22.094 12.286 21.404 12.806 20.884L15.47 18.22C15.763 17.927 16.238 17.927 16.531 18.22L19.195 20.884C19.715 21.404 20.001 22.094 20.001 22.829V26H12V22.829Z" fill="black"/>
</svg>
