<svg width="44" height="54" viewBox="0 0 44 54" fill="none" xmlns="http://www.w3.org/2000/svg">
<path d="M22 0C14.3478 0 0 5.68421 0 21.7895C0 37.8947 22 54 22 54C22 54 44 37.8947 44 21.7895C44 5.68421 29.6522 0 22 0Z" fill="#FEDB3F"/>
<path d="M13.1807 21.2773C12.5971 21.2773 12.083 21.1772 11.6384 20.9772C11.1938 20.7771 10.851 20.4997 10.6102 20.145C10.3694 19.7812 10.2489 19.3628 10.2489 18.8899C10.2489 18.4897 10.3323 18.126 10.499 17.7985C10.675 17.4711 10.9066 17.2119 11.1938 17.0209C11.4902 16.83 11.8144 16.7345 12.1664 16.7345C12.4906 16.7345 12.7639 16.8163 12.9862 16.98C13.2085 17.1346 13.3475 17.3529 13.403 17.6348C12.9214 17.6348 12.5369 17.7622 12.2498 18.0168C11.9626 18.2624 11.819 18.5989 11.819 19.0263C11.819 19.4174 11.9395 19.7312 12.1803 19.9676C12.4211 20.2041 12.7407 20.3223 13.139 20.3223C13.63 20.3223 14.0329 20.1632 14.3479 19.8449C14.6721 19.5174 14.8342 19.1082 14.8342 18.6171C14.8342 18.1896 14.7138 17.7849 14.4729 17.4029C14.2321 17.0209 13.8708 16.5571 13.3891 16.0114C12.8889 15.4476 12.5091 14.9655 12.2498 14.5654C11.9997 14.1561 11.8746 13.7105 11.8746 13.2284C11.8746 12.7555 12.0089 12.3326 12.2776 11.9597C12.5462 11.5777 12.9167 11.2776 13.3891 11.0593C13.8616 10.8411 14.3942 10.7319 14.987 10.7319C15.7374 10.7319 16.3348 10.9047 16.7795 11.2503C17.2334 11.5959 17.4603 12.0598 17.4603 12.6418C17.4603 13.0238 17.363 13.333 17.1685 13.5695C16.974 13.806 16.7192 13.9242 16.4043 13.9242C16.0523 13.9242 15.7698 13.7832 15.5567 13.5013C15.7327 13.374 15.8717 13.2057 15.9736 12.9965C16.0755 12.7873 16.1264 12.5691 16.1264 12.3417C16.1264 12.0507 16.0384 11.8188 15.8624 11.646C15.6864 11.4732 15.4456 11.3868 15.1399 11.3868C14.7694 11.3868 14.4637 11.5186 14.2228 11.7824C13.9912 12.037 13.8755 12.3644 13.8755 12.7646C13.8755 13.1284 13.982 13.4694 14.195 13.7878C14.4081 14.097 14.7416 14.4972 15.1955 14.9883C15.566 15.3793 15.8624 15.7158 16.0847 15.9978C16.3163 16.2797 16.5108 16.6071 16.6683 16.98C16.835 17.3438 16.9184 17.7394 16.9184 18.1669C16.9184 18.7489 16.7517 19.2764 16.4182 19.7494C16.094 20.2223 15.6447 20.5952 15.0704 20.868C14.5054 21.1409 13.8755 21.2773 13.1807 21.2773ZM19.0764 21.1136C18.6318 21.1136 18.2705 20.9772 17.9926 20.7043C17.724 20.4315 17.5897 20.0222 17.5897 19.4765C17.5897 19.2492 17.6267 18.9536 17.7009 18.5898L18.6457 14.2107H20.6465L19.6461 18.849C19.6183 18.9854 19.6044 19.1127 19.6044 19.231C19.6044 19.6038 19.7434 19.7903 20.0213 19.7903C20.2806 19.7903 20.503 19.6857 20.6882 19.4765C20.8735 19.2582 21.0217 18.9627 21.1329 18.5898L22.0777 14.2107H24.0785L23.0781 18.849C23.0411 18.9854 23.0225 19.1309 23.0225 19.2855C23.0225 19.4674 23.0642 19.5993 23.1476 19.6812C23.2402 19.7539 23.3884 19.7903 23.5922 19.7903C23.8516 19.7903 24.0739 19.6812 24.2592 19.4629C24.4537 19.2446 24.6065 18.9536 24.7177 18.5898H25.3013C24.9585 19.572 24.5324 20.2405 24.023 20.5952C23.5227 20.9408 23.0179 21.1136 22.5084 21.1136C22.1101 21.1136 21.7905 21.0044 21.5497 20.7862C21.3181 20.5679 21.1792 20.245 21.1329 19.8176C20.8179 20.3178 20.4844 20.6588 20.1324 20.8407C19.7897 21.0226 19.4377 21.1136 19.0764 21.1136ZM25.6609 14.2107H27.6618L27.4811 15.0565C27.7961 14.7836 28.0786 14.5745 28.3287 14.4289C28.5881 14.2834 28.866 14.2107 29.1624 14.2107C29.4588 14.2107 29.6904 14.3107 29.8571 14.5108C30.0331 14.7109 30.1211 14.9519 30.1211 15.2338C30.1211 15.4976 30.0331 15.7295 29.8571 15.9296C29.6811 16.1297 29.4357 16.2297 29.1207 16.2297C28.9169 16.2297 28.778 16.1842 28.7039 16.0933C28.639 15.9932 28.5881 15.8523 28.551 15.6704C28.5232 15.5521 28.4954 15.4657 28.4676 15.4112C28.4399 15.3566 28.3889 15.3293 28.3148 15.3293C28.1203 15.3293 27.9535 15.3702 27.8146 15.4521C27.6849 15.5249 27.5135 15.6567 27.3005 15.8477L26.1889 21.0317H24.1881L25.6609 14.2107ZM28.6896 24.4422C28.2542 24.4422 27.8745 24.3013 27.5503 24.0193C27.2168 23.7465 27.05 23.3964 27.05 22.9689C27.05 22.5778 27.1519 22.255 27.3557 22.0003C27.5595 21.7457 27.8235 21.541 28.1477 21.3864C28.4719 21.2409 28.9027 21.0863 29.4399 20.9226L31.1212 13.1329C31.3065 12.2598 31.6307 11.655 32.0938 11.3185C32.5663 10.982 33.085 10.8138 33.65 10.8138C34.0854 10.8138 34.4652 10.9548 34.7894 11.2367C35.1229 11.5095 35.2896 11.8597 35.2896 12.2871C35.2896 12.4963 35.2757 12.6828 35.2479 12.8465H34.5949C34.6134 12.6464 34.6227 12.5236 34.6227 12.4781C34.6227 12.3326 34.5717 12.2189 34.4698 12.1371C34.3679 12.0552 34.2429 12.0143 34.0947 12.0143C33.9001 12.0143 33.7103 12.1007 33.525 12.2735C33.3397 12.4372 33.2054 12.7237 33.122 13.1329L32.8858 14.2107H33.9001L33.8029 14.7564H32.7747L31.1768 22.1231C30.9915 23.0053 30.6719 23.6101 30.218 23.9375C29.7641 24.274 29.2547 24.4422 28.6896 24.4422ZM28.37 23.2281C28.7406 23.2281 29.0046 22.8734 29.162 22.164L29.3427 21.3728C28.8517 21.5365 28.4766 21.7229 28.2172 21.9321C27.9486 22.1504 27.8143 22.4323 27.8143 22.7779C27.8143 22.887 27.8698 22.9871 27.981 23.078C28.0921 23.1781 28.2218 23.2281 28.37 23.2281ZM7.84553 33.0504C7.21564 33.0504 6.73396 32.9004 6.40048 32.6002C6.06701 32.291 5.90027 31.859 5.90027 31.3042C5.90027 31.0314 5.93269 30.7722 5.99753 30.5266L7.48427 23.6919L9.54069 23.4191L8.87375 26.4886C9.13311 26.334 9.34617 26.2339 9.5129 26.1884C9.67964 26.1339 9.84638 26.1066 10.0131 26.1066C11.1062 26.1066 11.6527 26.8842 11.6527 28.4394C11.6527 29.0669 11.5276 29.7399 11.2775 30.4584C11.0367 31.1678 10.6291 31.7772 10.0548 32.2865C9.48975 32.7958 8.75332 33.0504 7.84553 33.0504ZM8.62364 31.7271C8.9108 31.7271 9.17943 31.5543 9.42953 31.2087C9.67964 30.854 9.8788 30.4175 10.027 29.8991C10.1752 29.3716 10.2493 28.8668 10.2493 28.3848C10.2493 28.021 10.1845 27.7118 10.0548 27.4572C9.92511 27.2025 9.74448 27.0752 9.5129 27.0752C9.37396 27.0752 9.21648 27.0979 9.04048 27.1434C8.87375 27.1798 8.75796 27.2389 8.69311 27.3207L7.9289 30.7858C7.90111 30.895 7.88722 30.9996 7.88722 31.0996C7.88722 31.518 8.13269 31.7271 8.62364 31.7271ZM14.2001 33.0231C13.5146 33.0231 12.9727 32.8503 12.5744 32.5047C12.1761 32.1591 11.9769 31.6134 11.9769 30.8677C11.9769 30.2492 12.1066 29.5626 12.366 28.8077C12.6253 28.0529 13.0422 27.4026 13.6165 26.8569C14.1908 26.3021 14.9133 26.0247 15.7841 26.0247C16.9698 26.0247 17.5626 26.7523 17.5626 28.2075V28.2211C17.5904 28.2302 17.6413 28.2348 17.7154 28.2348C18.0211 28.2348 18.3731 28.1574 18.7714 28.0028C19.1698 27.8391 19.531 27.6436 19.8552 27.4162L19.9803 27.7846C19.7117 28.0665 19.3597 28.3075 18.9243 28.5076C18.4982 28.6986 18.0304 28.835 17.5209 28.9169C17.4468 29.7445 17.2569 30.4675 16.9512 31.086C16.6455 31.7044 16.2519 32.1819 15.7702 32.5184C15.2885 32.8549 14.7651 33.0231 14.2001 33.0231ZM14.7559 31.7953C14.9782 31.7953 15.2005 31.6726 15.4228 31.427C15.6451 31.1724 15.8397 30.8313 16.0064 30.4038C16.1731 29.9673 16.2935 29.4853 16.3677 28.9578C16.1175 28.9032 15.9925 28.7122 15.9925 28.3848C15.9925 28.0119 16.1361 27.7664 16.4232 27.6481C16.4047 27.348 16.3584 27.1434 16.2843 27.0342C16.2102 26.916 16.0805 26.8569 15.8952 26.8569C15.5895 26.8569 15.2931 27.0752 15.006 27.5117C14.7188 27.9483 14.4872 28.4712 14.3112 29.0806C14.1352 29.6899 14.0472 30.2265 14.0472 30.6903C14.0472 31.1269 14.0982 31.4225 14.2001 31.5771C14.302 31.7226 14.4872 31.7953 14.7559 31.7953ZM19.9449 33.0504C19.4169 33.0504 18.9769 32.8731 18.6249 32.5184C18.2729 32.1637 18.0969 31.6089 18.0969 30.854C18.0969 30.181 18.2312 29.4762 18.4999 28.7395C18.7778 27.9937 19.1853 27.3662 19.7226 26.8569C20.2691 26.3385 20.9175 26.0793 21.6679 26.0793C22.0476 26.0793 22.3302 26.143 22.5154 26.2703C22.7007 26.3976 22.7933 26.5659 22.7933 26.775V26.8705L22.9462 26.1475H24.947L23.9466 30.7858C23.9095 30.9222 23.891 31.0678 23.891 31.2224C23.891 31.6135 24.0809 31.809 24.4607 31.809C24.7201 31.809 24.9424 31.6908 25.1276 31.4543C25.3222 31.2178 25.475 30.9086 25.5862 30.5266H26.1698C25.827 31.5089 25.4009 32.1773 24.8914 32.532C24.3912 32.8776 23.8864 33.0504 23.3769 33.0504C22.9879 33.0504 22.6729 32.9458 22.4321 32.7366C22.2005 32.5184 22.0615 32.2046 22.0152 31.7953C21.7466 32.1682 21.4455 32.4729 21.1121 32.7094C20.7879 32.9367 20.3988 33.0504 19.9449 33.0504ZM20.8481 31.7271C21.0796 31.7271 21.3066 31.6225 21.5289 31.4134C21.7605 31.1951 21.918 30.8995 22.0013 30.5266L22.6683 27.4435C22.6683 27.3253 22.622 27.2116 22.5293 27.1025C22.4367 26.9842 22.2931 26.9251 22.0986 26.9251C21.7281 26.9251 21.3946 27.1388 21.0982 27.5663C20.8018 27.9846 20.5702 28.494 20.4034 29.0942C20.2367 29.6854 20.1533 30.2083 20.1533 30.663C20.1533 31.1178 20.2182 31.4088 20.3479 31.5361C20.4868 31.6635 20.6535 31.7271 20.8481 31.7271ZM26.5361 26.1475H28.537L28.3563 26.9933C28.6713 26.7205 28.9538 26.5113 29.2039 26.3658C29.4633 26.2203 29.7412 26.1475 30.0376 26.1475C30.334 26.1475 30.5656 26.2476 30.7323 26.4476C30.9083 26.6477 30.9963 26.8887 30.9963 27.1707C30.9963 27.4344 30.9083 27.6663 30.7323 27.8664C30.5563 28.0665 30.3108 28.1665 29.9959 28.1665C29.7921 28.1665 29.6532 28.1211 29.5791 28.0301C29.5142 27.9301 29.4633 27.7891 29.4262 27.6072C29.3984 27.489 29.3706 27.4026 29.3428 27.348C29.3151 27.2934 29.2641 27.2662 29.19 27.2662C28.9955 27.2662 28.8287 27.3071 28.6898 27.3889C28.5601 27.4617 28.3887 27.5936 28.1757 27.7846L27.0641 32.9686H25.0633L26.5361 26.1475ZM32.4828 33.0504C31.9548 33.0504 31.5148 32.8731 31.1628 32.5184C30.8108 32.1637 30.6348 31.6089 30.6348 30.854C30.6348 30.181 30.7691 29.4762 31.0377 28.7395C31.3156 27.9937 31.7232 27.3662 32.2605 26.8569C32.807 26.3385 33.4554 26.0793 34.2057 26.0793C34.5855 26.0793 34.868 26.143 35.0533 26.2703C35.2386 26.3976 35.3312 26.5659 35.3312 26.775V26.8296L36.012 23.6919L38.0685 23.4191L36.4706 30.7858C36.4335 30.9222 36.415 31.0541 36.415 31.1814C36.415 31.5452 36.6049 31.7271 36.9847 31.7271C37.1514 31.7271 37.2996 31.6998 37.4293 31.6453C37.3922 32.1 37.2255 32.4502 36.9291 32.6957C36.6419 32.9322 36.2992 33.0504 35.9009 33.0504C35.5303 33.0504 35.2154 32.9595 34.956 32.7776C34.7059 32.5866 34.5392 32.3001 34.4558 31.9181C33.9 32.673 33.2423 33.0504 32.4828 33.0504ZM33.3859 31.7271C33.5897 31.7271 33.7935 31.6407 33.9973 31.4679C34.2103 31.2951 34.3678 31.0541 34.4697 30.7449L34.5253 30.5266L35.2061 27.4026C35.1228 27.0843 34.9329 26.9251 34.6365 26.9251C34.2659 26.9251 33.9325 27.1388 33.636 27.5663C33.3396 27.9846 33.108 28.494 32.9413 29.0942C32.7746 29.6854 32.6912 30.2083 32.6912 30.663C32.6912 31.1178 32.756 31.4088 32.8857 31.5361C33.0247 31.6635 33.1914 31.7271 33.3859 31.7271Z" fill="#292929"/>
</svg>
