<svg width="41" height="41" viewBox="0 0 41 41" fill="none" xmlns="http://www.w3.org/2000/svg">
<path d="M37.5485 3.45152C37.3352 3.23814 37.0379 3.13037 36.7376 3.15814C36.6123 3.16952 33.6209 3.45402 29.5183 4.83108C16.1663 8.94322 7.32974 21.8899 3.22065 31.2558C2.962 31.8743 3.48458 32.7021 4.26676 32.6337L8.80535 32.1922L8.36386 36.7304C8.31549 37.3828 8.94883 38.0699 9.74184 37.7764C26.0466 30.3472 35.9919 18.976 37.8419 4.26228C37.8694 3.96186 37.7619 3.66476 37.5485 3.45152ZM24.4105 25.7881C22.6089 27.4277 20.8329 28.8372 19.1913 30.0245V12.7211C20.9122 11.3108 22.6957 10.1677 24.4105 9.24486V25.7881ZM14.4936 33.0991C12.8802 34.0471 11.5183 34.7389 10.5551 35.1956L10.9478 31.1597C11.006 30.6346 10.5202 29.9703 9.83797 30.05L5.8034 30.4424C7.16641 27.5507 10.8373 20.8176 17.159 14.5514V31.4322C16.1849 32.0781 15.286 32.6336 14.4936 33.0991ZM34.2232 10.8908C33.0298 14.4275 30.7123 19.5335 26.4428 23.8442V8.2325C29.2239 6.88932 33.4729 5.68533 35.6337 5.36608C35.4266 6.57955 35.0109 8.55616 34.2232 10.8908Z" fill="white"/>
</svg>
